<svg xmlns="http://www.w3.org/2000/svg" width="58" height="58" viewBox="0 0 58 58"><g><g><path fill="#fff" d="M57.386 28.88c0 15.679-12.708 28.387-28.387 28.387C13.322 57.267.614 44.559.614 28.88.614 13.205 13.322.495 29 .495c15.679 0 28.387 12.71 28.387 28.386zm-19.399.464a1.573 1.573 0 0 0-2.226 0l-4.835 4.522.078-14.317c-.078-1.145-1.133-1.693-2.005-1.693-.871 0-1.849.392-1.966 1.576l-.039 14.59-4.757-4.678a1.566 1.566 0 0 0-2.226 0 1.573 1.573 0 0 0 0 2.226l7.874 7.876a1.578 1.578 0 0 0 2.228 0l7.874-7.876a1.573 1.573 0 0 0 0-2.226z"/></g></g></svg>