<svg xmlns="http://www.w3.org/2000/svg" width="57" height="71" viewBox="0 0 57 71"><g><g><path fill="#00c7fc" d="M26.193 13.35l4.383.333c14.707 1.116 26.295 13.409 26.295 28.404 0 15.73-12.754 28.487-28.487 28.487-15.732 0-28.487-12.757-28.487-28.487 0-14.995 11.588-27.286 26.296-28.404v-.333c-2.123-.161-3.533-.268 0 0V9.217h-8.765V4.833c0-2.424 1.96-4.806 4.382-4.806h13.487c2.424 0 4.044 2.382 4.044 4.806v4.384h-8.765v4.466l-4.383-.333zm17.685 44.23l.002-.003a21.77 21.77 0 0 0 6.42-15.492c0-5.855-2.28-11.36-6.418-15.499a21.783 21.783 0 0 0-14.8-6.402l1.482 21.502c.127 1.801-.853 2.591-2.18 2.591-1.326 0-2.306-.79-2.177-2.591l1.481-21.5a21.767 21.767 0 0 0-14.8 6.404 21.778 21.778 0 0 0-6.417 15.497 21.76 21.76 0 0 0 6.418 15.49A21.765 21.765 0 0 0 28.384 64a21.767 21.767 0 0 0 15.494-6.42c-.11.11-4.078 4.078 0 0l.002-.003-.002.003z"/></g></g></svg>