<svg xmlns="http://www.w3.org/2000/svg" width="81" height="42" viewBox="0 0 81 42"><g><g><path fill="#fff" d="M56.011.99h7.096l-.062 22.97h-6.972zm19.578 8.521l.062 1.468 4.372.062v5.054l-4.99-.062.062 7.928h-6.973v-7.99l-3.114.062v-5.177l3.114-.062V9.36c0-2.974.694-5.239 2.057-6.734C71.567 1.113 73.685.343 76.472.343c.786 0 1.491.024 2.102.08.635.051 1.211.13 1.732.242l.636.175V7l-.977.047a66.23 66.23 0 0 0-1.275-.135c-.414-.036-.849-.054-1.308-.054-.962 0-1.245.345-1.343.464-.161.2-.45.769-.45 2.188zm-24.642 5.352c.511 1.271 1.067 2.93 1.067 5.077l-.062 4.02h-22.86c.669-.919 1.548-1.4 2.658-2.047 2.602-1.515 6.342-2.251 11.438-2.251h1.019l-.026-.836c-.023-.458-.06-.832-.133-1.113-.141-.626-.419-1.09-.839-1.422-.436-.38-1.308-.794-3.201-.794-1.5 0-2.62.258-3.342.766-.63.445-.934 1.112-.962 2.09l-.029.646-7.193.062.005-.799c.24-3.89 2.485-8.528 11.792-8.528 1.702 0 3.226.146 4.526.444 1.357.308 2.592.836 3.664 1.57 1.1.737 1.934 1.787 2.478 3.115zm-26.023 4.878l.062 4.22H17.39l.062-3.822c0-.812-.059-1.505-.175-2.067-.107-.459-.272-.842-.482-1.108a1.615 1.615 0 0 0-.752-.534c-.382-.14-.882-.207-1.486-.207-.86 0-1.734.229-2.6.684-.813.434-2.026 1.139-2.887 2.104v5.012H1.967V.984h7.024l.078 7.16c0 1.08-.072 2.143-.084 3.182-.005.226.116.696.116.918 1.932-1.505 4.351-2.517 6.612-2.517 6.024 0 9.211 3.463 9.211 10.014zM6.323 41.82c-.935 0-1.75-.113-2.45-.336-.695-.224-1.279-.536-1.745-.937-.468-.4-.82-.88-1.062-1.437a4.995 4.995 0 0 1-.392-1.83H2.36a3.1 3.1 0 0 0 .4 1.318c.221.371.507.679.85.923.347.242.744.423 1.192.538.446.113.923.17 1.434.17.496 0 .945-.049 1.35-.156.402-.106.75-.256 1.039-.455.286-.196.507-.435.663-.714a1.94 1.94 0 0 0 .235-.956c0-.365-.073-.678-.214-.93-.144-.255-.38-.475-.7-.668-.323-.19-.751-.36-1.278-.512a26.617 26.617 0 0 0-1.938-.465 12.8 12.8 0 0 1-1.923-.583c-.54-.214-.979-.47-1.326-.765a2.781 2.781 0 0 1-.768-1.012c-.168-.381-.25-.82-.25-1.312 0-.54.114-1.037.343-1.491.229-.455.549-.846.963-1.173.415-.33.911-.588 1.489-.77a6.295 6.295 0 0 1 1.923-.28c.744 0 1.42.095 2.032.28.609.182 1.133.446 1.578.793a3.71 3.71 0 0 1 1.046 1.263 3.85 3.85 0 0 1 .412 1.684H9.208c-.175-1.613-1.27-2.419-3.288-2.419-.986 0-1.741.183-2.275.554-.532.367-.797.864-.797 1.49 0 .281.048.525.147.724.098.203.264.38.499.528.235.153.549.292.938.411.392.121.878.246 1.46.371.4.086.804.177 1.223.272.418.094.823.213 1.217.352.397.135.77.304 1.121.496.352.195.661.429.925.707.265.276.472.603.628.983.153.376.228.82.228 1.328 0 .583-.122 1.123-.365 1.612-.246.49-.586.913-1.021 1.268-.44.356-.959.634-1.557.836-.602.2-1.258.3-1.968.3zm18.89-12.005H20.83v11.766h-1.75V29.815h-4.356v-1.588h10.49zm9.838 12.005c-.822 0-1.523-.084-2.097-.252-.574-.167-1.054-.395-1.437-.681a3.281 3.281 0 0 1-.912-1c-.22-.384-.39-.791-.504-1.226a6.974 6.974 0 0 1-.215-1.348c-.03-.464-.045-.919-.045-1.366v-7.72h1.752v7.69c0 .894.077 1.623.232 2.184.153.564.375 1.005.67 1.32a2.2 2.2 0 0 0 1.08.644c.428.11.917.165 1.476.165.553 0 1.045-.058 1.477-.171a2.18 2.18 0 0 0 1.076-.653c.286-.318.505-.758.654-1.318.15-.558.228-1.283.228-2.17v-7.691h1.768v7.72c0 .922-.078 1.746-.234 2.474-.159.725-.431 1.34-.822 1.845-.392.502-.925.887-1.594 1.153-.673.268-1.526.4-2.553.4zm21.503-6.988c0 4.5-2.249 6.75-6.754 6.75h-4.197V28.226H49.8c4.505 0 6.754 2.201 6.754 6.605zm-1.809 0c0-.776-.078-1.478-.23-2.099-.155-.621-.417-1.148-.793-1.58-.377-.43-.884-.763-1.522-.99-.64-.233-1.444-.348-2.416-.348h-2.428v10.18h2.428c.965 0 1.764-.117 2.405-.35.64-.235 1.15-.572 1.528-1.02.38-.442.643-.984.798-1.623.152-.637.23-1.362.23-2.17zm9.049 6.75h-1.752V28.226h1.752zm10.73-13.596c.92 0 1.768.169 2.54.5.771.334 1.44.8 2 1.404.563.602 1 1.326 1.319 2.176.314.85.475 1.791.475 2.825 0 1.027-.16 1.964-.471 2.813a6.543 6.543 0 0 1-1.306 2.186 5.838 5.838 0 0 1-2.002 1.42c-.777.341-1.628.51-2.555.51-.926 0-1.78-.169-2.553-.504a5.868 5.868 0 0 1-2.007-1.412c-.562-.603-1-1.332-1.312-2.186-.312-.853-.469-1.794-.469-2.827 0-1.042.158-1.985.473-2.835.319-.85.757-1.574 1.323-2.178a5.86 5.86 0 0 1 2.01-1.395 6.454 6.454 0 0 1 2.535-.497zm-.01 12.313c.66 0 1.266-.119 1.82-.363a3.971 3.971 0 0 0 1.433-1.062c.403-.465.717-1.032.94-1.703.226-.671.338-1.432.338-2.28 0-.85-.112-1.61-.338-2.277-.223-.669-.537-1.229-.94-1.687a4.02 4.02 0 0 0-1.423-1.049 4.42 4.42 0 0 0-1.792-.36c-.657 0-1.267.122-1.824.365a4.081 4.081 0 0 0-1.443 1.058c-.404.46-.72 1.024-.945 1.689-.227.663-.336 1.417-.336 2.261 0 .848.11 1.609.33 2.28.223.67.535 1.238.936 1.703a4 4 0 0 0 1.428 1.062c.55.244 1.158.363 1.816.363z"/></g></g></svg>