<svg xmlns="http://www.w3.org/2000/svg" width="113" height="33" viewBox="0 0 113 33"><g><g><path fill="#fff" d="M37.683.647L34.904 14.08c-.282 1.37-.702 2.584-1.246 3.603-.559 1.039-1.26 1.907-2.09 2.583a8.202 8.202 0 0 1-2.912 1.516c-1.069.322-2.275.482-3.58.482-1.212 0-2.278-.137-3.175-.407-.926-.281-1.702-.696-2.307-1.231a4.657 4.657 0 0 1-1.328-1.977c-.255-.727-.385-1.547-.385-2.438 0-.745.1-1.55.29-2.391L20.92.4l.103-.501h5.302l-.152.747-2.766 13.526a8.57 8.57 0 0 0-.18 1.608c0 .37.043.69.129.952.077.233.192.423.35.58.147.143.367.257.653.34.33.091.74.14 1.218.14.58 0 1.104-.071 1.553-.213a2.85 2.85 0 0 0 1.102-.65 3.95 3.95 0 0 0 .832-1.206c.235-.518.434-1.17.587-1.939L32.416.401l.103-.501h5.319zM18.855.645l-3.022 14.863a8.449 8.449 0 0 1-1.036 2.645 8.162 8.162 0 0 1-1.847 2.133 8.504 8.504 0 0 1-2.593 1.416c-.982.342-2.097.516-3.313.516a9.48 9.48 0 0 1-1.715-.156 9.452 9.452 0 0 1-1.586-.432 7.982 7.982 0 0 1-1.422-.702 6.43 6.43 0 0 1-1.177-.956l-.373-.392.339-.42 2.226-2.763.457-.564.51.52c.174.18.37.352.583.518a3.97 3.97 0 0 0 1.486.719c.284.073.61.109.963.109a3.163 3.163 0 0 0 1.923-.71c.313-.248.598-.596.845-1.028.258-.445.46-1.021.606-1.703l2.041-9.886H5.061l.154-.75L5.88.4l.102-.5h13.025zm34.8 8.68a8.468 8.468 0 0 1-2.014 3.038c-.894.874-2.032 1.577-3.383 2.095-1.343.512-2.934.773-4.729.773h-1.717l-1.249 6.165-.103.503h-5.305l.153-.746L39.569.401l.103-.501h6.558c1.436 0 2.673.157 3.68.465 1.028.315 1.878.753 2.526 1.298.658.552 1.144 1.202 1.444 1.93.29.712.436 1.45.436 2.203 0 1.212-.22 2.4-.66 3.529zm-4.86-2.929c0-.273-.042-.539-.125-.793a1.308 1.308 0 0 0-.385-.572c-.202-.18-.5-.33-.884-.453-.413-.126-.972-.191-1.659-.191h-1.707l-1.319 6.357h1.367c.73 0 1.394-.115 1.973-.344a4.345 4.345 0 0 0 1.469-.926 4.21 4.21 0 0 0 .935-1.378 4.322 4.322 0 0 0 .335-1.7zm60.114 4.956c-.42.225-.874.418-1.357.575.206.235.4.513.58.83.217.388.43.85.625 1.372.194.515.399 1.128.608 1.826l1.466 5.152.225.792h-5.847l-.118-.476-1.301-5.176c-.155-.648-.324-1.18-.511-1.598-.168-.37-.354-.661-.554-.862a1.41 1.41 0 0 0-.588-.363 3.042 3.042 0 0 0-.883-.115h-.093l-1.638 8.087-.101.503h-5.306l.154-.746L98.53.401l.102-.503h6.622c1.044 0 2.011.086 2.876.26.897.18 1.68.473 2.327.868a4.4 4.4 0 0 1 1.573 1.629c.363.663.548 1.468.548 2.394 0 .902-.144 1.76-.426 2.554a6.768 6.768 0 0 1-1.254 2.158 7.128 7.128 0 0 1-1.989 1.59zm-1.838-5.46c0-.683-.286-.945-.503-1.084-.287-.186-.893-.406-2.16-.406h-1.412l-.946 4.612h.635c.708 0 1.353-.075 1.924-.226.544-.144 1.004-.35 1.369-.618.354-.262.62-.571.81-.952.187-.376.283-.825.283-1.327zM57.377-.1h5.436l-.99 4.455-2.686 13.09-.934 4.454h-5.39l.952-4.454 2.704-13.09zm36.802 12.427l-.101.506h-5.551l.1-.507.633-3.223.146-.741h5.552l-.146.741zm-9.362 5.022h8.715l-.152.744-.667 3.303-.102.505H78.526l.154-.748L82.12 4.4h-7.614L71.05 21.396l-.102.503h-5.4l.15-.746 3.42-16.802h-5.81l.132-.7.698-3.256.107-.495h18.798v-.002H97.13l-.158.75-.698 3.305-.106.497h-8.713l-.815 3.912-.892 4.471zM18.103 32.951l.972-4.734h1.216c.623 0 1.092.13 1.41.39.316.26.474.662.474 1.209a3.724 3.724 0 0 1-.09.816 3.91 3.91 0 0 1-.146.518 2.781 2.781 0 0 1-.618 1.015 2.26 2.26 0 0 1-.516.406 2.78 2.78 0 0 1-.686.277c-.256.068-.55.103-.878.103zm3.389-3.107c0-.197-.027-.361-.08-.499a.818.818 0 0 0-.238-.334 1.005 1.005 0 0 0-.402-.19 2.305 2.305 0 0 0-.559-.06h-.59l-.746 3.632h.45c.242 0 .458-.027.648-.083a1.92 1.92 0 0 0 .507-.227c.146-.095.274-.204.38-.33a2.461 2.461 0 0 0 .456-.826 3.657 3.657 0 0 0 .161-.792c.01-.115.013-.212.013-.29zm7.112 3.107h-2.758l.97-4.734h2.76l-.114.543h-2.096l-.304 1.468h2.013l-.106.543h-2.015l-.334 1.63h2.096zm7.997-4.734l-2.622 4.734h-.887l-.638-4.734h.712l.398 3.191.095.935.504-.935 1.7-3.19zm4.733 4.734h-2.76l.972-4.734h2.76l-.115.543h-2.096l-.304 1.468h2.014l-.107.543h-2.015l-.334 1.63h2.096zm6.64 0h-2.789l.972-4.734h.668l-.86 4.183h2.12zm4.738.065c-.495 0-.865-.138-1.112-.415-.248-.277-.372-.67-.372-1.178a4.428 4.428 0 0 1 .269-1.5c.09-.241.203-.469.34-.685a2.61 2.61 0 0 1 .476-.562c.181-.16.388-.287.618-.382.23-.094.483-.141.76-.141.492 0 .862.139 1.109.416.249.278.371.67.371 1.178a4.448 4.448 0 0 1-.27 1.5c-.09.243-.202.47-.336.687a2.547 2.547 0 0 1-.477.562 2.13 2.13 0 0 1-.618.38c-.229.094-.481.14-.758.14zm1.783-3.221c0-.167-.015-.314-.048-.448a.943.943 0 0 0-.16-.338.734.734 0 0 0-.271-.216.901.901 0 0 0-.399-.078c-.2 0-.382.044-.546.133a1.534 1.534 0 0 0-.435.354 2.261 2.261 0 0 0-.329.5 3.91 3.91 0 0 0-.357 1.157 3.606 3.606 0 0 0-.043.52c0 .165.017.312.05.444a.938.938 0 0 0 .157.338c.07.094.16.167.272.218.111.05.244.076.4.076.2 0 .383-.043.545-.13.164-.091.309-.208.436-.353.127-.147.237-.313.329-.501a3.886 3.886 0 0 0 .357-1.158c.029-.192.042-.365.042-.518zm4.226 1.458l-.353 1.698h-.66l.972-4.734h1.331c.22 0 .426.023.617.067.193.046.36.115.503.209.144.093.257.215.338.363.082.147.122.323.122.527a1.715 1.715 0 0 1-.252.884 1.951 1.951 0 0 1-.747.701c-.165.088-.35.157-.556.209a2.811 2.811 0 0 1-.677.076zm2.176-1.812a.589.589 0 0 0-.24-.503c-.161-.119-.402-.178-.724-.178h-.704l-.398 1.95h.587c.195 0 .367-.02.517-.06.15-.04.279-.093.39-.16a1.137 1.137 0 0 0 .45-.498c.045-.094.076-.188.095-.283.018-.096.027-.186.027-.268zm7.45 3.51H67.7L68.21 30l.19-1.132-.365.658-1.093 1.883h-.456l-.32-1.81-.074-.73-.26 1.183-.674 2.9h-.624l1.205-4.734h.753l.29 1.782.082.602L67.2 30l1.046-1.782h.839zm6.733 0h-2.759l.972-4.734h2.76l-.115.543h-2.096l-.305 1.468h2.014l-.107.543H73.43l-.334 1.63h2.096zm5.718 0h-.829L79.166 30l-.224-.948-.485 2.386-.312 1.514h-.615l.975-4.734h.82l.768 2.797.263 1.083.52-2.536.277-1.344h.616zm7.495-4.183h-1.435L86 32.95h-.668l.856-4.183h-1.435l.115-.55h3.538z"/></g></g></svg>