<svg xmlns="http://www.w3.org/2000/svg" width="72" height="71" viewBox="0 0 72 71"><g><g><path fill="#fff" d="M71.477 35.5c0 19.593-15.885 35.476-35.478 35.476C16.407 70.976.523 55.093.523 35.5.523 15.908 16.407.023 36 .023c19.593 0 35.478 15.885 35.478 35.477zm-21.954-1.685c0-6.068-6.054-10.989-13.523-10.989-7.47 0-13.524 4.921-13.524 10.989 0 3.448 1.956 6.524 5.013 8.54.038.248.057.5.057.758 0 1.845-1.57 3.461-3.379 4.347v.712c3.352-.078 6.82-.597 9.725-3.503.686.09 1.39.134 2.108.134 7.47 0 13.523-4.92 13.523-10.988z"/></g></g></svg>