<svg xmlns="http://www.w3.org/2000/svg" width="117" height="29" viewBox="0 0 117 29"><g><g><path fill="#fff" d="M50.058 24.981c0-.353.008-.721.013-1.085.008-.363.014-.722.016-1.063l1.58-.084h.003a.417.417 0 0 0 .412-.46l-.008-.623c-.03-3.308-.064-6.797-.125-10.58l-.008-.326h-.824l-.077.222c-1.914 5.462-3.533 9.313-5.022 12.771l-.755.01c-.522.01-1.146.02-1.7.02-1.666-3.96-3.134-7.934-4.89-13.229l-.074-.227h-.863l-.006.326c-.036 2.254-.082 4.4-.128 6.51-.037 1.749-.074 3.473-.104 5.22l-.005.315.318.018 2.012.115c0 .687-.004 1.446-.021 2.15h-7.026v-2.15l1.415-.082.069-.002.06-.031c.234-.116.285-.297.285-.428.027-4.442.092-10.517.165-15.479l.004-.317-.316-.016-1.515-.085c.002-.39.01-.798.016-1.204.006-.388.014-.775.016-1.141h7.78c.977 2.628 2.947 8.406 4.394 12.655l.242.71.078.224h.732l.078-.22c.628-1.766 1.296-3.657 1.96-5.536.99-2.804 1.97-5.575 2.78-7.833h7.144c-.001.362-.007.745-.013 1.131-.007.406-.014.82-.018 1.217l-1.351.082h-.002c-.221 0-.408.204-.408.461.02 2.46.027 5.18.036 7.923.007 2.56.015 5.143.03 7.563l.002.31.31.016 1.516.084c0 .685-.003 1.444-.023 2.148zm21.736 0c0-.723.004-1.46.024-2.181l1.326-.082c.12 0 .253-.07.335-.183a.456.456 0 0 0 .059-.418c-.059-.175-.131-.418-.214-.682-.15-.499-.324-1.062-.457-1.397-.035-.147-.17-.373-.54-.373l-6.152.067-.26.004-.056.253c-.066.29-.148.612-.23.937a24.164 24.164 0 0 0-.337 1.433l-.072.37.377.022 1.514.082c0 .7-.002 1.428-.022 2.148h-7.29c.006-.72.028-1.45.055-2.15l1.23-.08c.195 0 .417-.167.49-.39a2838.487 2838.487 0 0 0 6.871-18.469c.67-.047 2.07-.047 4.079-.047 1.064 3.086 2.33 6.859 3.554 10.506.985 2.937 1.943 5.79 2.749 8.143l.068.206.218.016 1.39.11c0 .7-.003 1.435-.022 2.155zM68.989 9.597c-.463 1.49-.94 3.039-1.397 4.532l-.863 2.813c-.03.11-.079.308.049.473l.1.13.233.025h5.103l-.136-.432a300.36 300.36 0 0 1-1.525-4.989c-.254-.845-.509-1.704-.768-2.55l-.07-.235h-.654zm23.062 9.436l-.296-.694c-.461-1.097-1.146-1.63-2.1-1.63-.393 0-.711.029-.868.084l-.222.075-.002.235-.035 5.35v.314l.312.017 1.473.08c-.02.713-.023 1.41-.023 2.12h-8.3c.017-.713.02-1.41.02-2.12l1.32-.08c.236 0 .41-.222.41-.427l.031-15.718.001-.318-.317-.014-1.478-.055c0-.737.004-1.46.022-2.18 2.902-.042 5.31-.062 7.359-.062 1.86 0 2.883 0 4.808.456 2.779.61 4.496 3.083 4.496 5.03 0 2.45-1.428 4.446-3.915 5.476l-.203.085v.628l.185.088c1.226.586 1.973 2.14 3.21 4.714l.39.816c.33.744.633 1.328 1.265 1.38l1.295.164c-.002.347-.01.7-.016 1.054-.006.36-.014.721-.016 1.082l-.86.014c-.456.008-.919.017-1.237.017-.38 0-1.324.009-2.232.018l-1.762.016c-.755-1.371-1.975-4.257-2.715-6.015zM88.855 6.156l-.225.075-.002.237-.065 7.841-.004.263.255.063c.173.041.378.041.876.041 2.343 0 3.918-1.642 3.918-4.084 0-2.55-1.575-4.55-3.587-4.55-.577 0-.914.034-1.166.114zm14.189 18.578c-.227-1.79-.429-3.558-.629-5.3l-.043-.375c.98-.206 2.005-.383 2.888-.499l.853 3.02c.08.253.198.418.346.494.627.442 1.445.679 2.363.679.79 0 1.872-.196 2.535-.744.6-.476.919-1.187.919-2.046 0-1.917-1.066-2.313-3.638-3.268-3.804-1.428-5.732-3.527-5.732-6.236 0-2.416 1.347-3.983 2.15-4.703 1.45-1.318 3.884-2.044 6.856-2.044 1.877 0 3.386.25 4.112.502.177 1.832.33 3.702.457 5.566-.834.123-1.78.233-2.695.337l-.128.014-.694-2.807a.886.886 0 0 0-.222-.39c-.477-.4-1.177-.627-1.892-.627-.866 0-1.602.224-2.19.663a2.686 2.686 0 0 0-1.033 2.16c0 1.891.898 2.288 4.012 3.367 3.757 1.288 5.36 3.062 5.36 5.936 0 2.04-.85 3.884-2.333 5.055-1.571 1.246-3.734 1.825-6.807 1.825-1.151 0-3.404-.124-4.815-.579zM12.666 6.437a6.095 6.095 0 1 1-12.189 0 6.095 6.095 0 0 1 12.19 0zm0 16.15a6.095 6.095 0 1 1-6.093-6.094 6.096 6.096 0 0 1 6.093 6.095zm13.258-8.073a6.095 6.095 0 0 1-6.095 6.093 6.095 6.095 0 1 1 6.095-6.093z"/></g></g></svg>