<svg xmlns="http://www.w3.org/2000/svg" width="132" height="32" viewBox="0 0 132 32"><g><g><path fill="#fff" d="M50.521 8.924c1.097 1.175 1.651 2.648 1.651 4.386v8.59h-3.215v-8.537c0-.944-.252-1.693-.771-2.284-.489-.531-1.108-.794-1.886-.794-.842 0-1.522.263-2.076.801-.587.559-.87 1.311-.87 2.304v8.51H40.14v-8.537c0-.946-.252-1.693-.77-2.284-.489-.531-1.109-.794-1.886-.794-.843 0-1.523.263-2.076.801-.588.559-.869 1.311-.869 2.304v8.51h-3.216V7.466h3.216v.932c.9-.76 2.037-1.142 3.394-1.142.992 0 1.924.267 2.768.792a5.272 5.272 0 0 1 1.45 1.344c.645-.803 1.502-1.41 2.56-1.806.577-.22 1.232-.33 1.947-.33.724 0 1.428.146 2.092.432a5.477 5.477 0 0 1 1.771 1.236zm14.853.507c1.269 1.383 1.91 3.148 1.91 5.252 0 2.104-.641 3.87-1.907 5.248-1.35 1.448-3.118 2.18-5.259 2.18-2.14 0-3.908-.732-5.254-2.176-1.268-1.383-1.909-3.148-1.909-5.252 0-2.104.64-3.869 1.904-5.248 1.351-1.446 3.12-2.179 5.26-2.179 2.14 0 3.908.733 5.255 2.175zm-1.306 5.252c0-1.287-.34-2.312-1.04-3.136-.714-.85-1.665-1.262-2.91-1.262-1.244 0-2.194.412-2.905 1.258-.703.829-1.043 1.853-1.043 3.14 0 1.285.34 2.314 1.04 3.139.713.848 1.664 1.26 2.908 1.26 1.245 0 2.196-.412 2.908-1.258.702-.827 1.042-1.856 1.042-3.14zm16.45-5.252c1.27 1.383 1.91 3.148 1.91 5.252 0 2.104-.64 3.87-1.905 5.248-1.352 1.448-3.12 2.18-5.26 2.18-2.139 0-3.907-.732-5.256-2.176-1.267-1.383-1.907-3.148-1.907-5.252 0-2.104.64-3.869 1.905-5.248 1.35-1.446 3.12-2.179 5.258-2.179 2.14 0 3.909.733 5.256 2.175zm-1.305 5.252c0-1.287-.34-2.312-1.04-3.136-.714-.85-1.664-1.262-2.91-1.262-1.244 0-2.195.412-2.905 1.258-.704.829-1.044 1.853-1.044 3.14 0 1.285.34 2.314 1.041 3.139.712.848 1.664 1.26 2.908 1.26 1.246 0 2.197-.412 2.906-1.258.703-.827 1.044-1.856 1.044-3.14zm15.3-5.76c1.196 1.176 1.808 2.755 1.808 4.679V21.9h-3.215v-8.247c0-1.058-.28-1.87-.86-2.477-.569-.599-1.295-.891-2.217-.891-.952 0-1.738.308-2.4.938-.65.637-.969 1.443-.969 2.457v8.22h-3.214V7.466h3.214v1.132c.25-.211.513-.405.792-.585.784-.502 1.685-.757 2.683-.757.95 0 1.79.137 2.492.41a5.224 5.224 0 0 1 1.885 1.258zm15.452.518c1.276 1.412 1.926 3.175 1.926 5.242s-.65 3.832-1.93 5.247c-1.292 1.445-3.045 2.182-5.208 2.182-1.58 0-2.91-.456-3.976-1.358v6.373h-3.215V7.468h3.215v1.13c1.079-.891 2.454-1.342 4.107-1.342 2.076 0 3.785.735 5.081 2.185zm-5.344 9.64c1.234 0 2.207-.415 2.97-1.271.73-.823 1.085-1.846 1.085-3.127 0-1.281-.355-2.304-1.085-3.127-.765-.856-1.736-1.271-2.97-1.271-1.244 0-2.194.412-2.906 1.258-.702.828-1.044 1.853-1.044 3.14 0 1.287.342 2.314 1.041 3.139.715.848 1.665 1.26 2.909 1.26zm11.835-11.615V21.9h-3.214V7.466zm.08-4.804v3.823h-3.373V2.662zm15.427 13.859l-.249.799c-.444 1.426-1.264 2.588-2.44 3.455-1.235.888-2.706 1.337-4.38 1.337-2.105 0-3.849-.735-5.178-2.18-1.283-1.395-1.931-3.162-1.931-5.249 0-2.086.648-3.853 1.93-5.248 1.33-1.446 3.073-2.179 5.18-2.179 1.673 0 3.144.447 4.372 1.329 1.183.874 2.003 2.035 2.447 3.46l.249.8h-3.397l-.154-.39a3.498 3.498 0 0 0-1.215-1.576c-.549-.4-1.164-.594-1.88-.594-.753 0-1.392.116-1.898.343a3.676 3.676 0 0 0-1.283.927c-.768.848-1.138 1.868-1.138 3.128s.37 2.282 1.133 3.123c.768.86 1.81 1.275 3.186 1.275.717 0 1.332-.194 1.88-.594.559-.409.956-.924 1.215-1.576l.154-.39zm-25.717 13.496c-.257.301-.559.452-.907.452-.213 0-.401-.04-.564-.117-.162-.08-.3-.19-.41-.333a1.47 1.47 0 0 1-.255-.518 2.51 2.51 0 0 1-.084-.67c0-.262.034-.497.103-.707a1.6 1.6 0 0 1 .284-.532 1.219 1.219 0 0 1 .955-.453c.173 0 .333.027.478.08.144.055.278.135.4.241v-1.455h.562v4.387h-.562zm0-.54v-1.508c-.253-.256-.532-.386-.84-.386a.67.67 0 0 0-.579.312c-.145.207-.216.519-.216.936 0 .392.067.688.204.89a.647.647 0 0 0 .567.301.824.824 0 0 0 .452-.135c.143-.088.282-.227.412-.41zm5.193.992c-.231 0-.442-.037-.633-.112a1.38 1.38 0 0 1-.49-.325 1.546 1.546 0 0 1-.317-.523 2.057 2.057 0 0 1-.112-.705c0-.259.036-.492.108-.695.074-.206.177-.38.307-.526.13-.142.288-.252.471-.33.184-.075.386-.114.605-.114.229 0 .434.037.618.113.185.075.341.185.47.327.13.143.23.318.3.523.07.206.105.441.105.702v.135h-2.393c.013.184.046.345.098.48.052.135.12.247.206.337a.79.79 0 0 0 .295.2 1.065 1.065 0 0 0 .64.03.858.858 0 0 0 .251-.113.636.636 0 0 0 .181-.18.465.465 0 0 0 .074-.249h.592a1.123 1.123 0 0 1-.454.758c-.122.087-.26.153-.416.199a1.845 1.845 0 0 1-.506.068zm.833-1.975c-.044-.301-.146-.529-.307-.68a.813.813 0 0 0-.587-.23c-.113 0-.219.019-.319.056a.756.756 0 0 0-.265.17.907.907 0 0 0-.196.285 1.42 1.42 0 0 0-.113.4zm4.44 1.975c-.863 0-1.318-.34-1.365-1.025h.569c0 .386.265.578.79.578.117 0 .221-.012.31-.037a.675.675 0 0 0 .225-.105.445.445 0 0 0 .183-.363.41.41 0 0 0-.034-.182.299.299 0 0 0-.137-.122 1.579 1.579 0 0 0-.28-.106c-.12-.035-.277-.076-.47-.127a5.712 5.712 0 0 1-.487-.14 1.134 1.134 0 0 1-.336-.17.608.608 0 0 1-.194-.246.923.923 0 0 1-.063-.369.835.835 0 0 1 .321-.654c.103-.082.227-.145.373-.192.146-.047.31-.07.489-.07.836 0 1.26.298 1.274.891h-.559c-.02-.298-.244-.447-.672-.447-.095 0-.183.01-.264.03a.708.708 0 0 0-.21.08.412.412 0 0 0-.14.131.329.329 0 0 0-.05.183c0 .06.008.113.024.152.014.04.052.077.11.112.059.033.146.067.262.1.114.033.271.075.472.123.193.047.36.096.5.145.142.05.26.11.355.18a.672.672 0 0 1 .21.261c.046.102.067.23.067.382a.89.89 0 0 1-.089.398.95.95 0 0 1-.255.32c-.11.091-.242.162-.4.212a1.704 1.704 0 0 1-.528.077zm4.387-3.853h-.561v-.611h.561zm0 3.776h-.561V27.22h.561zm5.58-.246c0 1.024-.463 1.536-1.384 1.536-.2 0-.38-.022-.54-.067a1.283 1.283 0 0 1-.407-.19.847.847 0 0 1-.347-.71h.585c0 .35.23.526.692.526.135 0 .254-.017.36-.05a.558.558 0 0 0 .26-.17.792.792 0 0 0 .161-.33c.039-.138.057-.31.057-.521v-.153c-.257.301-.56.452-.908.452-.213 0-.4-.04-.563-.117-.164-.08-.3-.19-.412-.333a1.483 1.483 0 0 1-.253-.518 2.469 2.469 0 0 1-.084-.67c0-.262.034-.497.103-.707.067-.21.162-.388.284-.532a1.224 1.224 0 0 1 .955-.453c.173 0 .332.027.477.08.145.055.278.135.401.241v-.24h.562zm-.563-.67V27.97c-.253-.256-.534-.386-.841-.386a.673.673 0 0 0-.579.312c-.144.207-.216.519-.216.936 0 .392.068.688.204.89a.646.646 0 0 0 .567.301.823.823 0 0 0 .452-.135c.144-.088.281-.227.413-.41zm3.78-1.855c.14-.16.29-.283.448-.363.16-.08.326-.12.498-.12.72 0 1.077.393 1.077 1.178v2.076h-.567v-2.05c0-.132-.012-.243-.035-.335a.551.551 0 0 0-.104-.23.429.429 0 0 0-.182-.127.84.84 0 0 0-.268-.04c-.289 0-.578.17-.867.506v2.276h-.562V27.22h.562zM4.161 22.8c-.377-.137-.746-.29-1.11-.452a14.184 14.184 0 0 1-2.594-8.193c0-7.871 6.38-14.25 14.25-14.25 4.144 0 7.873 1.77 10.476 4.592a17.005 17.005 0 0 0-4.099-.505c-1.26 0-2.538.139-3.816.433-4.023.916-6.755 4.47-6.799 8.424a4.432 4.432 0 0 0 5.626 5.512l.063-.01c-.015.05-.03.099-.047.146a7.906 7.906 0 0 1-8.4 5.148 16.34 16.34 0 0 1-3.55-.844zm21.792-7.154a16.156 16.156 0 0 1 1.386 5.101c-2.341 4.477-6.99 7.552-12.369 7.65a16.922 16.922 0 0 0 5.394-5.757 8.752 8.752 0 0 0-1.662-10.777c-.145-.135-.307-.257-.463-.38a4.431 4.431 0 0 0-2.78-1.695 7.901 7.901 0 0 1 8.606 2.733c.76.988 1.388 2.038 1.888 3.125zm3.004-1.49c0 1.819-.346 3.559-.968 5.161a17.035 17.035 0 0 0-3.254-7.313A8.754 8.754 0 0 0 14.152 9.38a8.623 8.623 0 0 0-1.351.778c-.47.223-.895.525-1.255.891a7.902 7.902 0 0 1 5.911-5.8 16.125 16.125 0 0 1 8.688.407 14.199 14.199 0 0 1 2.812 8.5zM13.432 28.344A14.214 14.214 0 0 1 4.1 23.67c1.118.386 2.29.666 3.51.815a8.75 8.75 0 0 0 9.572-6.63c.062-.05.123-.101.18-.156a4.42 4.42 0 0 0 1.777-3.542c0-.204-.017-.402-.044-.595a7.9 7.9 0 0 1 .533 8.66 16.262 16.262 0 0 1-2.152 2.947 16.16 16.16 0 0 1-4.045 3.177z"/></g></g></svg>