<svg xmlns="http://www.w3.org/2000/svg" width="71" height="71" viewBox="0 0 71 71"><g><g><path fill="#fff" d="M70.85 35.755c0 19.447-15.766 35.211-35.213 35.211-19.446 0-35.21-15.764-35.21-35.211S16.19.543 35.637.543c19.447 0 35.213 15.765 35.213 35.212zm-22.629 7.55c0-1.677-5.033-6.71-6.71-5.033-1.678 1.678-1.678 3.356-3.356 3.356s-3.356-1.678-5.034-3.356c-1.678-1.677-3.355-3.355-3.355-5.032 0-1.679 1.677-1.679 3.355-3.357 1.678-1.678-3.355-6.712-5.033-6.712-1.678 0-5.033 5.034-5.033 5.034 0 3.356 3.447 10.159 6.71 13.423 3.265 3.265 10.068 6.711 13.423 6.711 0 0 5.033-3.355 5.033-5.034z"/></g></g></svg>