<svg xmlns="http://www.w3.org/2000/svg" width="123" height="33" viewBox="0 0 123 33"><g><g><path fill="#fff" d="M118.984 21.272a3.425 3.425 0 0 1-3.422-3.419 3.425 3.425 0 0 1 3.422-3.42 3.422 3.422 0 0 1 3.418 3.42 3.423 3.423 0 0 1-3.418 3.42zm0-6.401A2.985 2.985 0 0 0 116 17.853a2.984 2.984 0 0 0 2.983 2.979 2.984 2.984 0 0 0 2.98-2.979 2.985 2.985 0 0 0-2.98-2.982zm-1.214 1.167c.27-.045.679-.078 1.13-.078.557 0 .947.085 1.214.295.223.179.346.44.346.786 0 .48-.34.808-.663.924v.018c.26.106.407.356.502.702.116.422.234.914.305 1.06h-.868c-.062-.112-.15-.413-.262-.875-.101-.468-.262-.596-.608-.604h-.256v1.479h-.84zm.84 1.616h.333c.425 0 .676-.212.676-.54 0-.346-.235-.519-.626-.525-.206 0-.322.016-.383.028zM10.175 32.904l.018-.023H.503s1.32-.556 2.366-.903c.319-.105.516-.224.653-.34a3.664 3.664 0 0 1-1.002-2.512 3.688 3.688 0 0 1 3.686-3.686c.73 0 1.407.218 1.98.586-.164.466-.274.947-.274 1.431 0 1.065.46 2.027 1.2 2.8a4.809 4.809 0 0 1-.61-2.312 4.87 4.87 0 0 1 9.737 0c0 .794-.207 1.53-.545 2.193.667-.749 1.067-1.674 1.067-2.68 0-.746-.245-1.476-.642-2.154a3.68 3.68 0 0 1 .955-.144c1.838 0 3.339 1.379 3.57 3.152-.95.385-1.71 1.195-2.098 2.224l.15.017a3.601 3.601 0 0 1 3.084-1.751 3.61 3.61 0 0 1 3.5 2.748c.124.146.346.309.769.45 1.044.346 2.365.905 2.365.905zm6.278-16.728s-1.276.747-2.169.744h-.01c-.622.019-2.168-.744-2.168-.744l-2.967 1.16c.184-2.457 1.437-3.942 2.504-5.842C10.853 2.313 14.107.03 14.107.03s3.597 2.283 2.809 11.464c1.066 1.9 2.319 3.385 2.505 5.842l-2.968-1.16zm-1.107 2.688l.533 3.363-.896-.84c-.074-.015-.186.467-.262.467-.055 0-.252.513-.308.519-.058-.006-.159-.519-.214-.519-.076 0-.188-.482-.262-.468l-.896.841.533-3.363-.853.918.754-2.179c.213.172.777.5.991.516.218-.016.767-.344.98-.516l.752 2.179zm22.265 13.775h-2.589l2.938-14.196h3.843c.614 0 1.142.022 1.584.063.443.043.83.114 1.162.212.934.27 1.618.694 2.054 1.274.435.58.651 1.262.651 2.049 0 .572-.078 1.109-.239 1.612a3.861 3.861 0 0 1-.75 1.356 4.717 4.717 0 0 1-1.318 1.052c-.534.297-1.175.53-1.924.7v.041l3.15 5.837h-2.864l-2.844-5.495h-1.72zm1.592-7.67h.996c.475 0 .898-.017 1.274-.05.375-.03.711-.09 1.008-.173.672-.185 1.201-.484 1.59-.897.39-.415.584-.949.584-1.608 0-.34-.076-.637-.233-.89-.155-.256-.41-.442-.764-.563a3.101 3.101 0 0 0-.656-.127 9.547 9.547 0 0 0-1.01-.043h-1.887zm16.857-6.791c.827 0 1.578.114 2.254.344a4.703 4.703 0 0 1 1.735 1.03 4.577 4.577 0 0 1 1.113 1.699c.262.674.393 1.454.393 2.337 0 .552-.059 1.164-.176 1.836a11.04 11.04 0 0 1-.568 2.04c-.261.693-.6 1.365-1.017 2.018a7.67 7.67 0 0 1-1.523 1.74 7.312 7.312 0 0 1-2.085 1.22c-.792.307-1.693.463-2.705.463-.827 0-1.58-.116-2.255-.347a4.653 4.653 0 0 1-1.733-1.027 4.57 4.57 0 0 1-1.115-1.7c-.263-.673-.392-1.454-.392-2.339a11.145 11.145 0 0 1 1.76-5.894 7.733 7.733 0 0 1 1.523-1.74 7.273 7.273 0 0 1 2.085-1.219c.792-.308 1.694-.461 2.706-.461zm-.181 2.196c-.572 0-1.1.098-1.58.296-.482.2-.919.47-1.311.812a5.77 5.77 0 0 0-1.04 1.206c-.3.457-.552.949-.754 1.474a8.979 8.979 0 0 0-.455 1.628 9.123 9.123 0 0 0-.154 1.65c0 .538.07 1.01.212 1.417.141.406.344.747.61 1.024.265.275.59.481.97.619.383.138.81.209 1.284.209.573 0 1.101-.1 1.58-.297.482-.199.919-.47 1.312-.814.392-.342.74-.743 1.04-1.203.299-.46.552-.952.753-1.475a9.238 9.238 0 0 0 .61-3.279c0-1.075-.275-1.887-.822-2.44-.549-.552-1.3-.827-2.255-.827zm15.762 0c-.609 0-1.179.088-1.709.265-.53.177-1.006.42-1.427.731a5.25 5.25 0 0 0-1.103 1.105 6.768 6.768 0 0 0-.791 1.384 7.83 7.83 0 0 0-.477 1.57 8.707 8.707 0 0 0-.159 1.66c0 .716.096 1.306.292 1.771.195.468.46.838.801 1.111.34.272.737.463 1.192.572.457.11.944.166 1.46.166a9.123 9.123 0 0 0 1.745-.156 12.45 12.45 0 0 0 1.799-.472l-.467 2.293a8.971 8.971 0 0 1-1.846.413c-.658.078-1.252.118-1.782.118-.857 0-1.64-.109-2.35-.325a4.796 4.796 0 0 1-1.83-1.002c-.51-.453-.907-1.032-1.19-1.74-.282-.708-.424-1.55-.424-2.525 0-.694.07-1.401.207-2.123.138-.722.35-1.42.637-2.096a9.592 9.592 0 0 1 1.082-1.908 7.276 7.276 0 0 1 1.554-1.565 7.223 7.223 0 0 1 2.091-1.056 8.26 8.26 0 0 1 2.567-.387c.502 0 1.076.047 1.724.137.647.093 1.25.23 1.809.415l-.436 2.121a13.456 13.456 0 0 0-1.496-.356 8.68 8.68 0 0 0-1.473-.121zm3.546 12.265l2.938-14.196h2.59l-1.306 6.313h.043l5.878-6.313h3.204l-6.78 7.14 4.51 7.056h-2.982l-4.106-6.558h-.042l-1.358 6.558zm15.675-2.176h6.695l-.446 2.176h-9.283l2.938-14.196h8.902l-.456 2.175h-6.3l-.766 3.67h5.41l-.445 2.176h-5.41zm15.35 2.176h-2.588l2.493-12.021h-4.457l.436-2.175h11.512l-.447 2.175h-4.455z"/></g></g></svg>