<svg xmlns="http://www.w3.org/2000/svg" width="69" height="56" viewBox="0 0 69 56"><g><g><path fill="#00c7fc" d="M68.457 6.626a28.273 28.273 0 0 1-8.12 2.227 14.184 14.184 0 0 0 6.216-7.821 28.143 28.143 0 0 1-8.978 3.428 14.123 14.123 0 0 0-10.32-4.464c-7.807 0-14.14 6.333-14.14 14.143 0 1.102.128 2.183.369 3.213C21.73 16.77 11.31 11.14 4.338 2.582a14.089 14.089 0 0 0-1.915 7.113c0 4.905 2.498 9.227 6.292 11.772a14.22 14.22 0 0 1-6.404-1.775v.181c0 6.846 4.873 12.562 11.34 13.862a14.156 14.156 0 0 1-3.724.493c-.912 0-1.799-.084-2.659-.25 1.797 5.614 7.02 9.703 13.204 9.82a28.374 28.374 0 0 1-17.559 6.054c-1.144 0-2.266-.066-3.37-.2a40.005 40.005 0 0 0 21.675 6.352c26.005 0 40.23-21.544 40.23-40.225 0-.616-.019-1.224-.046-1.838a28.818 28.818 0 0 0 7.055-7.315z"/></g></g></svg>