<svg xmlns="http://www.w3.org/2000/svg" width="13" height="13" viewBox="0 0 13 13"><g><g><path fill="#fff" d="M12.225 10.076L8.602 6.455l3.623-3.622a.383.383 0 0 0 .085-.134.371.371 0 0 0-.085-.394L10.512.595a.368.368 0 0 0-.526-.002L6.364 4.216 2.74.595A.342.342 0 0 0 2.608.51a.368.368 0 0 0-.395.085l-1.71 1.71a.367.367 0 0 0-.084.394c.016.05.045.095.084.134l3.622 3.622-3.622 3.621a.363.363 0 0 0-.084.134.368.368 0 0 0 .084.395l1.71 1.71a.375.375 0 0 0 .528 0l3.623-3.62 3.622 3.62a.37.37 0 0 0 .526 0l1.713-1.71a.373.373 0 0 0 0-.529"/></g></g></svg>